Coordinates
version=1
nRows=60
nColumns=12
inDegrees=yes

Units are S.I. units (second, meters, Newtons, ...)
Angles are in degrees

endheader
time	SC_y	SC_z	SC_x	AC_y	AC_z	AC_x	GH_y	GH_z	GH_yy	EL_x	PS_y
       0.0              -48.35         -1.266          36.02          68.53         -1.231         -3.503         -156.9          62.04          39.02          13.21          16.64
   0.04953              -48.35         -1.263          36.02          68.53         -1.233         -3.503         -156.9          62.03          39.03          13.22          16.66
   0.09906              -48.35         -1.259          36.03          68.53         -1.234         -3.503         -156.9          62.01          39.04          13.22          16.68
    0.1486              -48.34         -1.256          36.03          68.52         -1.236         -3.504         -156.9           62.0          39.04          13.22           16.7
    0.1981              -48.34         -1.252          36.03          68.52         -1.238         -3.504         -156.8          61.99          39.05          13.22          16.72
    0.2476              -48.33         -1.248          36.03          68.52          -1.24         -3.505         -156.8          61.97          39.06          13.22          16.74
    0.2972              -48.32         -1.244          36.03          68.52         -1.242         -3.505         -156.8          61.96          39.07          13.22          16.77
    0.3467              -48.32         -1.239          36.04          68.52         -1.244         -3.506         -156.8          61.94          39.08          13.22          16.79
    0.3962              -48.31         -1.235          36.04          68.51         -1.246         -3.506         -156.8          61.92          39.09          13.22          16.82
    0.4458               -48.3         -1.229          36.04          68.51         -1.248         -3.507         -156.8           61.9           39.1          13.22          16.85
    0.4953               -48.3         -1.224          36.04          68.51         -1.251         -3.507         -156.8          61.88          39.11          13.22          16.88
    0.5448              -48.29         -1.218          36.05           68.5         -1.254         -3.508         -156.8          61.86          39.12          13.22          16.91
    0.5944              -48.28         -1.211          36.05           68.5         -1.257         -3.509         -156.8          61.83          39.14          13.22          16.95
    0.6439              -48.27         -1.204          36.05           68.5          -1.26          -3.51         -156.8           61.8          39.15          13.22          16.99
    0.6934              -48.26         -1.197          36.06          68.49         -1.264          -3.51         -156.8          61.78          39.17          13.22          17.03
    0.7429              -48.25         -1.188          36.06          68.49         -1.268         -3.511         -156.8          61.74          39.18          13.22          17.08
    0.7925              -48.24         -1.179          36.06          68.48         -1.272         -3.512         -156.8          61.71           39.2          13.22          17.13
     0.842              -48.22          -1.17          36.07          68.48         -1.277         -3.514         -156.8          61.67          39.22          13.22          17.18
    0.8915              -48.21         -1.159          36.07          68.47         -1.282         -3.515         -156.7          61.63          39.25          13.22          17.24
    0.9411              -48.19         -1.147          36.08          68.46         -1.288         -3.516         -156.7          61.59          39.27          13.22          17.31
    0.9906              -48.17         -1.134          36.09          68.45         -1.294         -3.517         -156.7          61.54           39.3          13.22          17.38
      1.04              -48.16          -1.12          36.09          68.45           -1.3         -3.519         -156.7          61.49          39.33          13.22          17.46
      1.09              -48.13         -1.105           36.1          68.44         -1.308         -3.521         -156.7          61.43          39.36          13.22          17.54
     1.139              -48.11         -1.087          36.11          68.43         -1.316         -3.523         -156.7          61.36          39.39          13.22          17.64
     1.189              -48.08         -1.068          36.12          68.42         -1.325         -3.525         -156.6          61.29          39.43          13.23          17.75
     1.238              -48.06         -1.047          36.13           68.4         -1.335         -3.527         -156.6          61.21          39.48          13.23          17.87
     1.288              -48.02         -1.023          36.14          68.39         -1.347          -3.53         -156.6          61.11          39.53          13.23           18.0
     1.337              -47.99        -0.9958          36.15          68.38          -1.36         -3.533         -156.6          61.01          39.59          13.23          18.15
     1.387              -47.94        -0.9653          36.17          68.36         -1.374         -3.536         -156.5           60.9          39.65          13.23          18.32
     1.436               -47.9        -0.9307          36.18          68.34         -1.391          -3.54         -156.5          60.76          39.72          13.23          18.52
     1.486              -47.84        -0.8912           36.2          68.31         -1.409         -3.545         -156.5          60.61           39.8          13.24          18.74
     1.535              -47.78        -0.8458          36.22          68.29         -1.431          -3.55         -156.4          60.44           39.9          13.24          18.99
     1.585              -47.71        -0.7934          36.25          68.26         -1.456         -3.556         -156.4          60.24          40.01          13.24          19.28
     1.634              -47.63        -0.7326          36.28          68.22         -1.485         -3.563         -156.3          60.01          40.13          13.24          19.62
     1.684              -47.53        -0.6614          36.31          68.18         -1.519         -3.571         -156.2          59.74          40.28          13.25          20.02
     1.734              -47.41        -0.5775          36.35          68.13         -1.559          -3.58         -156.1          59.42          40.46          13.25          20.49
     1.783              -47.28        -0.4777           36.4          68.08         -1.606         -3.591         -156.0          59.04          40.67          13.26          21.04
     1.833              -47.11        -0.3582          36.46          68.01         -1.663         -3.605         -155.9          58.58          40.91          13.26          21.71
     1.882              -46.92        -0.2135          36.53          67.92         -1.732         -3.621         -155.7          58.03          41.22          13.27          22.52
     1.932              -46.67       -0.03681          36.61          67.82         -1.816         -3.641         -155.5          57.36          41.59          13.28          23.51
     1.981              -46.38         0.1813          36.72           67.7          -1.92         -3.665         -155.3          56.53          42.04          13.29          24.72
     2.031               -46.0         0.4532          36.85          67.54         -2.049         -3.696         -155.0          55.49          42.61          13.31          26.24
      2.08              -45.53         0.7958          37.01          67.34         -2.212         -3.734         -154.6          54.19          43.32          13.33          28.16
      2.13              -44.94          1.231          37.22          67.09         -2.419         -3.783         -154.2          52.53          44.23          13.35          30.59
     2.179              -44.18          1.789          37.49          66.77         -2.685         -3.846         -153.6          50.41          45.39          13.38           33.7
     2.229               -43.2          2.504          37.84          66.36         -3.025         -3.926         -152.8          47.68          46.88          13.42          37.69
     2.278              -41.95          3.418          38.28          65.84          -3.46         -4.029         -151.8           44.2          48.79          13.47           42.8
     2.328              -40.38          4.567          38.83          65.17         -4.007         -4.158         -150.6          39.83          51.18          13.54          49.21
     2.377              -38.46          5.967           39.5          64.37         -4.673         -4.315         -149.1           34.5           54.1          13.61          57.03
     2.427              -36.24           7.59          40.28          63.43         -5.445         -4.497         -147.3          28.32          57.49           13.7          66.09
     2.476              -33.84          9.347          41.13          62.42         -6.282         -4.695         -145.4          21.63          61.15           13.8           75.9
     2.526              -31.43           11.1          41.97          61.41         -7.118         -4.892         -143.6          14.93          64.82           13.9          85.72
     2.576              -29.21          12.73          42.75          60.48          -7.89         -5.075         -141.8          8.754           68.2          13.99          94.78
     2.625               -27.3          14.13          43.43          59.67         -8.557         -5.232         -140.3          3.422          71.12          14.06          102.6
     2.675              -25.73          15.28          43.98          59.01         -9.103         -5.361         -139.1         -0.953          73.52          14.13          109.0
     2.724              -24.48          16.19          44.42          58.49         -9.538         -5.463         -138.1         -4.433          75.42          14.18          114.1
     2.774               -23.5           16.9          44.76          58.07         -9.879         -5.544         -137.3         -7.157          76.91          14.22          118.1
     2.823              -22.74          17.46          45.03          57.75         -10.14         -5.606         -136.7         -9.279          78.08          14.25          121.2
     2.873              -22.14           17.9          45.24           57.5         -10.35         -5.655         -136.2         -10.94          78.99          14.27          123.7
     2.922              -21.67          18.24          45.41           57.3         -10.51         -5.694         -135.9         -12.24           79.7          14.29          125.6
